<svg xmlns="http://www.w3.org/2000/svg" width="19.127" height="25.367" viewBox="0 0 19.127 25.367">
  <g id="Component_143_1" data-name="Component 143 – 1" transform="translate(0.75 0.75)">
    <path id="Path_157" data-name="Path 157" d="M-723.545-486H-739.5a.834.834,0,0,1-.833-.872l.734-16.172a2.541,2.541,0,0,1,2.539-2.426h11.08a2.541,2.541,0,0,1,2.539,2.426l.734,16.172A.834.834,0,0,1-723.545-486Z" transform="translate(740.337 509.863)" fill="none" stroke="#484848" stroke-linecap="round" stroke-miterlimit="10" stroke-width="1.5"/>
    <path id="Path_158" data-name="Path 158" d="M-710.333-529.68v-1.256a4.4,4.4,0,0,1,4.4-4.4,4.4,4.4,0,0,1,4.4,4.4v1.256" transform="translate(714.75 535.333)" fill="none" stroke="#484848" stroke-linecap="round" stroke-miterlimit="10" stroke-width="1.5"/>
  </g>
</svg>
