<svg xmlns="http://www.w3.org/2000/svg" width="18.835" height="25.885" viewBox="0 0 18.835 25.885">
  <g id="Component_144_1" data-name="Component 144 – 1" transform="translate(0.75 0.75)">
    <path id="Path_106" data-name="Path 106" d="M216.112-479.132c0,4.478-8.667,15.793-8.667,15.793s-8.668-11.315-8.668-15.793a8.4,8.4,0,0,1,8.668-8.108A8.4,8.4,0,0,1,216.112-479.132Z" transform="translate(-198.777 487.24)" fill="none" stroke="#484848" stroke-miterlimit="10" stroke-width="1.5"/>
    <path id="Path_107" data-name="Path 107" d="M224.165-467.312a4.844,4.844,0,0,1-5,4.674,4.844,4.844,0,0,1-5-4.674,4.844,4.844,0,0,1,5-4.674A4.844,4.844,0,0,1,224.165-467.312Z" transform="translate(-210.501 475.624)" fill="none" stroke="#484848" stroke-miterlimit="10" stroke-width="1.5"/>
  </g>
</svg>
