<svg xmlns="http://www.w3.org/2000/svg" width="23.842" height="23.842" viewBox="0 0 23.842 23.842">
  <g id="Component_140_1" data-name="Component 140 – 1" transform="translate(0.75 0.75)">
    <circle id="Ellipse_32" data-name="Ellipse 32" cx="11.171" cy="11.171" r="11.171" fill="none" stroke="#484848" stroke-miterlimit="10" stroke-width="1.5"/>
    <g id="Group_102" data-name="Group 102" transform="translate(8.726 5.615)">
      <path id="Path_159" data-name="Path 159" d="M-371.015,54.634a.655.655,0,0,1-.352-.219.931.931,0,0,1-.172-.888,38.36,38.36,0,0,1,1.5-3.968c.139-.293.367-.965.025-1.215-.155-.114-.344-.008-.492.063-.111.054-.415.213-.456,0a.218.218,0,0,1,.043-.163,3.772,3.772,0,0,1,1.165-.853c.378-.23,1.322-.661,1.612-.081a1.581,1.581,0,0,1-.1,1.158c-.251.758-.533,1.5-.817,2.25-.158.414-.35.814-.5,1.229a4.632,4.632,0,0,0-.192.635.972.972,0,0,0-.006.622.638.638,0,0,0,.639.315c.093,0,.226.007.191.136-.064.235-.321.33-.518.424-.217.1-.431.216-.652.311a3.267,3.267,0,0,1-.583.246A.738.738,0,0,1-371.015,54.634Zm2.783-8.964c-.061-.019-.1-.077-.137-.163a1.666,1.666,0,0,0-.28-.433,1.208,1.208,0,0,1-.169-.208c-.236-.425.552-.833.829-.993q.229-.132.46-.259a.322.322,0,0,1,.3-.054.53.53,0,0,1,.172.153,1.311,1.311,0,0,1,.358.774c0,.313-.3.529-.536.687-.139.092-.286.172-.43.255a2.4,2.4,0,0,1-.433.233A.224.224,0,0,1-368.232,45.67Z" transform="translate(371.587 -43.54)" fill="#484848"/>
    </g>
  </g>
</svg>
