<svg xmlns="http://www.w3.org/2000/svg" width="25.387" height="24.513" viewBox="0 0 25.387 24.513">
  <g id="Component_141_1" data-name="Component 141 – 1" transform="translate(0.75 0.75)">
    <path id="Path_167" data-name="Path 167" d="M4003.679,589.04a3.44,3.44,0,0,1,3.44-3.44H3989.24a3.44,3.44,0,0,0-3.44,3.44V601.8h17.879Z" transform="translate(-3982.482 -585.6)" fill="none" stroke="#f55523" stroke-linecap="round" stroke-miterlimit="10" stroke-width="1.5"/>
    <path id="Rectangle_322" data-name="Rectangle 322" d="M3.4,0H21.2a0,0,0,0,1,0,0V4.47a2.34,2.34,0,0,1-2.34,2.34H3.4A3.4,3.4,0,0,1,0,3.4v0A3.4,3.4,0,0,1,3.4,0Z" transform="translate(0 16.204)" fill="none" stroke="#f55523" stroke-linecap="round" stroke-miterlimit="10" stroke-width="1.5"/>
    <path id="Path_168" data-name="Path 168" d="M4012.009,623.343a3.4,3.4,0,0,1-3.4-3.4h0a3.4,3.4,0,0,1,3.4-3.4" transform="translate(-3993.341 -600.329)" fill="none" stroke="#f55523" stroke-linecap="round" stroke-miterlimit="10" stroke-width="1.5"/>
    <g id="Group_116" data-name="Group 116" transform="translate(10.599 4.115)">
      <path id="Path_159" data-name="Path 159" d="M-371.165,51.735a.484.484,0,0,1-.26-.162.688.688,0,0,1-.127-.656,28.332,28.332,0,0,1,1.107-2.931c.1-.216.271-.713.019-.9-.115-.084-.254-.006-.364.047-.082.04-.307.157-.336,0a.161.161,0,0,1,.032-.12,2.787,2.787,0,0,1,.86-.63c.279-.17.976-.488,1.191-.06a1.168,1.168,0,0,1-.074.856c-.185.56-.394,1.111-.6,1.662-.116.306-.259.6-.373.908a3.42,3.42,0,0,0-.141.469.718.718,0,0,0,0,.459.471.471,0,0,0,.472.233c.069,0,.167.005.141.1-.047.173-.237.244-.383.313s-.319.159-.481.229a2.413,2.413,0,0,1-.431.182A.545.545,0,0,1-371.165,51.735Zm2.056-6.622c-.045-.014-.073-.057-.1-.12a1.23,1.23,0,0,0-.207-.32.893.893,0,0,1-.125-.153c-.174-.314.408-.616.612-.734q.169-.1.34-.192a.238.238,0,0,1,.223-.04.391.391,0,0,1,.127.113.969.969,0,0,1,.264.572c0,.231-.219.39-.4.507-.1.068-.211.127-.318.188a1.777,1.777,0,0,1-.32.172A.165.165,0,0,1-369.109,45.113Z" transform="translate(371.587 -43.54)" fill="#f55523"/>
    </g>
  </g>
</svg>
