<svg xmlns="http://www.w3.org/2000/svg" width="22.22" height="15.921" viewBox="0 0 22.22 15.921">
  <g id="Group_56" data-name="Group 56" transform="translate(0.75 0.75)">
    <path id="Rectangle_181" data-name="Rectangle 181" d="M195.9-721.467h16.564a2.078,2.078,0,0,1,2.078,2.078h0v10.266a2.078,2.078,0,0,1-2.078,2.078H195.9a2.077,2.077,0,0,1-2.078-2.077h0v-10.266A2.078,2.078,0,0,1,195.9-721.467Z" transform="translate(-193.824 721.467)" fill="none" stroke="#484848" stroke-miterlimit="10" stroke-width="1.5"/>
    <path id="Path_105" data-name="Path 105" d="M214.738-718.52l-9.228,8.21a.935.935,0,0,1-1.236,0l-9.228-8.21" transform="translate(-194.815 719.074)" fill="none" stroke="#484848" stroke-miterlimit="10" stroke-width="1.5"/>
    <line id="Line_60" data-name="Line 60" x1="7.266" y2="6.656" transform="translate(0.23 7.211)" fill="none" stroke="#484848" stroke-miterlimit="10" stroke-width="1.5"/>
    <line id="Line_61" data-name="Line 61" x1="7.266" y1="6.656" transform="translate(12.657 7.211)" fill="none" stroke="#484848" stroke-miterlimit="10" stroke-width="1.5"/>
  </g>
</svg>
