<svg xmlns="http://www.w3.org/2000/svg" width="21.517" height="20.012" viewBox="0 0 21.517 20.012">
  <g id="Group_188" data-name="Group 188" transform="translate(-1561.792 -682.72)">
    <g id="Group_113" data-name="Group 113" transform="translate(-59 2.118)">
      <g id="Group_112" data-name="Group 112" transform="translate(1621.567 681.352)">
        <path id="Path_165" data-name="Path 165" d="M3633.543,587.948a7.487,7.487,0,0,0-10.158,3.485l-.14,0a3.246,3.246,0,0,1-2.79-4.543l2.275-5.282a1.332,1.332,0,0,1,1.224-.805h12.71a1.331,1.331,0,0,1,1.244.856l2.036,5.324a3.24,3.24,0,0,1-3.016,4.452A3.437,3.437,0,0,1,3633.543,587.948Z" transform="translate(-3620.187 -580.8)" fill="none" stroke="#f8faff" stroke-linecap="round" stroke-miterlimit="10" stroke-width="1.5"/>
        <path id="Path_166" data-name="Path 166" d="M3641.92,617.412V621.1a1.491,1.491,0,0,1-1.582,1.381h-14.214a1.491,1.491,0,0,1-1.582-1.381v-3.688" transform="translate(-3623.031 -603.968)" fill="none" stroke="#f8faff" stroke-linecap="round" stroke-miterlimit="10" stroke-width="1.5"/>
        <line id="Line_100" data-name="Line 100" x1="9.196" transform="translate(5.737 4.375)" fill="none" stroke="#f8faff" stroke-linecap="round" stroke-miterlimit="10" stroke-width="1.5"/>
      </g>
    </g>
  </g>
</svg>
