<?xml version="1.0" standalone="no"?>
<!DOCTYPE svg PUBLIC "-//W3C//DTD SVG 1.1//EN" "http://www.w3.org/Graphics/SVG/1.1/DTD/svg11.dtd" >
<svg xmlns="http://www.w3.org/2000/svg">
<metadata>Generated by IcoMoon</metadata>
<defs>
<font id="icomoon" horiz-adv-x="1024">
<font-face units-per-em="1024" ascent="960" descent="-64" />
<missing-glyph horiz-adv-x="1024" />
<glyph unicode="&#x20;" horiz-adv-x="512" d="" />
<glyph unicode="&#xe900;" glyph-name="forbidden-sign" d="M512 960c-282.752 0-512-229.248-512-512s229.248-512 512-512 512 229.248 512 512-229.248 512-512 512zM512 832c82.88 0 159.136-27.008 221.888-71.744l-534.272-534.016c-44.736 62.752-71.616 139.008-71.616 221.76 0 211.744 172.256 384 384 384zM512 64c-82.88 0-159.136 27.008-221.888 71.744l534.272 534.016c44.736-62.752 71.616-139.008 71.616-221.76 0-211.744-172.256-384-384-384z" />
<glyph unicode="&#xe901;" glyph-name="pen" d="M361.528 64.086l-232.261 232.261 561.764 561.764 232.261-232.261zM107.556 255.435l213.059-213.059-319.434-106.376zM994.729 696.981l-40.286-40.286-232.568 232.568 40.286 40.286c40.581 40.605 106.388 40.605 146.969 0l85.6-85.6c40.286-40.716 40.286-106.265 0-146.969z" />
<glyph unicode="&#xe902;" glyph-name="play" d="M839.851 543.087l-568.792 389.393c-26.268 17.995-52.735 27.52-74.734 27.52-42.531 0-68.84-34.134-68.84-91.27v-841.592c0-57.070 26.276-91.138 68.708-91.138 22.032 0 48.076 9.532 74.402 27.578l569.057 389.385c36.596 25.083 56.863 58.835 56.863 95.083 0.008 36.223-20.026 69.968-56.664 95.042z" />
<glyph unicode="&#xe903;" glyph-name="coding-1" d="M1013.526 474.341l-236.801 250.881c-14.554 15.436-38.848 16.14-54.284 1.574-15.412-14.554-16.128-38.86-1.562-54.284l211.931-224.513-211.931-224.539c-14.566-15.424-13.85-39.718 1.562-54.284 7.424-7.002 16.908-10.47 26.356-10.47 10.202 0 20.39 4.044 27.93 12.020l236.801 250.893c13.962 14.808 13.962 37.926-0.002 52.722zM303.134 223.472l-211.917 224.527 211.917 224.525c14.554 15.424 13.85 39.732-1.574 54.284-15.412 14.554-39.732 13.85-54.284-1.574l-236.801-250.881c-13.964-14.796-13.964-37.926 0-52.724l236.813-250.893c7.552-8 17.728-12.032 27.93-12.032 9.446 0 18.932 3.482 26.342 10.484 15.438 14.554 16.128 38.86 1.574 54.284zM574.125 854.605c-20.954 3.174-40.564-11.212-43.764-32.166l-112.641-737.284c-3.2-20.966 11.2-40.564 32.166-43.764 1.972-0.294 3.916-0.436 5.85-0.436 18.65 0 35.008 13.606 37.914 32.602l112.641 737.284c3.2 20.968-11.2 40.564-32.166 43.764z" />
<glyph unicode="&#xe904;" glyph-name="right-arrow" d="M796.462 487.956l-455.693 455.685c-10.54 10.548-24.609 16.359-39.611 16.359s-29.071-5.811-39.611-16.359l-33.559-33.55c-21.837-21.862-21.837-57.393 0-79.222l382.657-382.657-383.081-383.081c-10.54-10.548-16.359-24.609-16.359-39.603 0-15.010 5.819-29.071 16.359-39.628l33.559-33.542c10.548-10.548 24.609-16.359 39.611-16.359s29.071 5.811 39.611 16.359l456.118 456.101c10.565 10.581 16.367 24.709 16.334 39.728 0.033 15.077-5.769 29.196-16.334 39.769z" />
<glyph unicode="&#xe905;" glyph-name="play-3" d="M824.966 457.632c-1.704 2.967-4.165 5.425-7.129 7.129l-222.813 129.062-220.578 126.827c-9.263 5.308-21.077 2.101-26.382-7.163-1.673-2.922-2.556-6.23-2.559-9.599v-511.888c0.061-10.652 8.68-19.27 19.331-19.331 4.006 0.006 7.909 1.254 11.174 3.576l220.131 126.491 221.695 128.503c9.258 5.319 12.448 17.136 7.129 26.393zM512 960c-282.77 0-512-229.23-512-512s229.23-512 512-512 512 229.23 512 512-229.23 512-512 512zM512 31.092c-230.252 0-416.908 186.656-416.908 416.908s186.656 416.908 416.908 416.908 416.908-186.656 416.908-416.908-186.656-416.908-416.908-416.908z" />
<glyph unicode="&#xe906;" glyph-name="user" d="M504.701 466.736c67.765 0 126.445 24.305 174.39 72.258 47.945 47.945 72.25 106.609 72.25 174.382 0 67.75-24.305 126.421-72.258 174.382-47.953 47.937-106.625 72.242-174.382 72.242-67.773 0-126.437-24.305-174.382-72.25s-72.258-106.617-72.258-174.374c0-67.773 24.312-126.445 72.265-174.39 47.953-47.937 106.625-72.25 174.374-72.25zM936.254 172.597c-1.383 19.953-4.18 41.719-8.297 64.703-4.156 23.156-9.508 45.047-15.914 65.054-6.617 20.68-15.617 41.101-26.742 60.672-11.547 20.312-25.109 38-40.328 52.554-15.914 15.227-35.398 27.469-57.929 36.398-22.453 8.883-47.336 13.383-73.953 13.383-10.453 0-20.562-4.289-40.086-17-12.016-7.836-26.070-16.898-41.758-26.922-13.414-8.547-31.586-16.555-54.031-23.805-21.898-7.086-44.133-10.68-66.078-10.68s-44.172 3.594-66.093 10.68c-22.422 7.242-40.594 15.25-53.992 23.797-15.539 9.93-29.601 18.992-41.797 26.937-19.5 12.711-29.617 17-40.070 17-26.625 0-51.5-4.508-73.945-13.398-22.516-8.914-42.008-21.156-57.937-36.398-15.211-14.562-28.781-32.242-40.312-52.547-11.117-19.57-20.117-39.984-26.742-60.679-6.398-20.008-11.75-41.89-15.906-65.047-4.117-22.953-6.914-44.726-8.297-64.726-1.359-19.594-2.047-39.93-2.047-60.469 0-53.453 16.992-96.726 50.5-128.64 33.094-31.492 76.883-47.469 130.132-47.469h493.061c53.25 0 97.023 15.969 130.124 47.469 33.515 31.89 50.508 75.172 50.508 128.648-0.008 20.633-0.703 40.984-2.070 60.484z" />
<glyph unicode="&#xe907;" glyph-name="clock-4" d="M512 960c-282.312 0-512-229.688-512-512s229.688-512 512-512 512 229.688 512 512-229.688 512-512 512zM512 0c-247.032 0-448 200.968-448 448s200.968 448 448 448 448-200.968 448-448-200.968-448-448-448zM544 767.999h-64v-333.249l201.375-201.375 45.25 45.25-182.625 182.625z" />
<glyph unicode="&#xe908;" glyph-name="block" d="M872.6 808.6c-96.6 96.598-224.398 151.4-360.6 151.4-281.314 0-512-230.232-512-512 0-281.916 230.15-512 512-512 280.612 0 512 229.178 512 512 0 136.202-54.8 264.002-151.4 360.6zM512 58c-215.572 0-390 173.97-390 390 0 84.002 26.4 163.802 75 229.802l544.802-544.2c-66.004-49.202-145.8-75.602-229.802-75.602zM826.4 218.202l-544.202 544.798c66.004 48.6 145.8 75 229.802 75 215.578 0 390-173.97 390-390 0-83.998-26.4-163.798-75.6-229.798z" />
<glyph unicode="&#xe909;" glyph-name="visibility" d="M512.001 587.635c-77.034 0-139.636-62.603-139.636-139.636s62.603-139.636 139.636-139.636 139.636 62.603 139.636 139.636-62.605 139.636-139.636 139.636zM512.001 797.090c-232.728 0-431.477-144.755-512.001-349.091 80.524-204.334 279.273-349.091 512.001-349.091 232.959 0 431.477 144.757 512.001 349.091-80.524 204.336-279.042 349.091-512.001 349.091zM512.001 215.273c-128.466 0-232.728 104.263-232.728 232.728s104.263 232.726 232.728 232.726 232.728-104.263 232.728-232.728-104.263-232.726-232.728-232.726z" />
<glyph unicode="&#xe90a;" glyph-name="invisible" d="M504.206 610.175l146.585-146.585 0.698 7.678c0 77.016-62.589 139.605-139.605 139.605l-7.678-0.698zM511.884 703.941c128.436 0 232.675-104.239 232.675-232.675 0-30.015-6.049-58.634-16.519-84.925l136.115-136.115c70.267 58.634 125.644 134.485 159.847 221.040-80.737 204.287-279.209 349.012-512.116 349.012-65.15 0-127.505-11.633-185.441-32.574l100.515-100.282c26.289 10.237 54.908 16.519 84.923 16.519zM46.534 830.75l127.274-127.274c-76.783-60.030-137.511-139.838-173.808-232.208 80.506-204.287 279.209-349.012 511.884-349.012 72.13 0 141.001 13.96 204.056 39.323l19.778-19.778 135.65-135.881 59.332 59.099-824.834 825.063-59.332-59.332zM303.873 573.644l71.896-71.896c-2.094-10.006-3.49-20.009-3.49-30.48 0-77.016 62.589-139.605 139.605-139.605 10.47 0 20.476 1.396 30.248 3.49l71.896-71.896c-30.946-15.357-65.381-24.664-102.145-24.664-128.436 0-232.675 104.239-232.675 232.675 0 36.762 9.308 71.198 24.664 102.376z" />
<glyph unicode="&#xe90b;" glyph-name="twitter" d="M1024 765.504c-38.080-16.704-78.656-27.776-120.96-33.152 43.52 25.984 76.736 66.816 92.352 116.032-40.576-24.192-85.376-41.28-133.12-50.816-38.528 41.024-93.44 66.432-153.344 66.432-116.224 0-209.792-94.336-209.792-209.984 0-16.64 1.408-32.64 4.864-47.872-174.528 8.512-328.96 92.16-432.704 219.584-18.112-31.424-28.736-67.392-28.736-106.112 0-72.704 37.44-137.152 93.248-174.464-33.728 0.64-66.816 10.432-94.848 25.856 0-0.64 0-1.472 0-2.304 0-102.016 72.768-186.752 168.192-206.272-17.088-4.672-35.712-6.912-55.040-6.912-13.44 0-27.008 0.768-39.744 3.584 27.2-83.136 104.384-144.256 196.16-146.24-71.424-55.872-162.112-89.536-260.288-89.536-17.216 0-33.728 0.768-50.24 2.88 92.992-59.968 203.2-94.208 322.048-94.208 386.304 0 597.504 320 597.504 597.376 0 9.28-0.32 18.24-0.768 27.136 41.664 29.568 76.672 66.496 105.216 108.992z" />
<glyph unicode="&#xe90c;" d="M512.128 960h-0.256c-282.304 0-511.872-229.632-511.872-512 0-112 36.096-215.808 97.472-300.096l-63.808-190.208 196.8 62.912c80.96-53.632 177.536-84.608 281.664-84.608 282.304 0 511.872 229.696 511.872 512s-229.568 512-511.872 512z" />
<glyph unicode="&#xe90d;" d="M810.048 236.992c-12.352-34.88-61.376-63.808-100.48-72.256-26.752-5.696-61.696-10.24-179.328 38.528-150.464 62.336-247.36 215.232-254.912 225.152-7.232 9.92-60.8 80.96-60.8 154.432s37.312 109.248 52.352 124.608c12.352 12.608 32.768 18.368 52.352 18.368 6.336 0 12.032-0.32 17.152-0.576 15.040-0.64 22.592-1.536 32.512-25.28 12.352-29.76 42.432-103.232 46.016-110.784 3.648-7.552 7.296-17.792 2.176-27.712-4.8-10.24-9.024-14.784-16.576-23.488s-14.72-15.36-22.272-24.704c-6.912-8.128-14.72-16.832-6.016-31.872 8.704-14.72 38.784-63.808 83.072-103.232 57.152-50.88 103.488-67.136 120.064-74.048 12.352-5.12 27.072-3.904 36.096 5.696 11.456 12.352 25.6 32.832 40 52.992 10.24 14.464 23.168 16.256 36.736 11.136 13.824-4.8 86.976-40.96 102.016-48.448 15.040-7.552 24.96-11.136 28.608-17.472 3.584-6.336 3.584-36.096-8.768-71.040z" />
<glyph unicode="&#xe90e;" d="M896 960h-768c-70.592 0-128-57.408-128-128v-768c0-70.592 57.408-128 128-128h768c70.592 0 128 57.408 128 128v768c0 70.592-57.408 128-128 128z" />
<glyph unicode="&#xe90f;" d="M864 448h-160v128c0 35.328 28.672 32 64 32h64v160h-128c-106.048 0-192-85.952-192-192v-128h-128v-160h128v-352h192v352h96l64 160z" />
<glyph unicode="&#xe910;" glyph-name="sheet" d="M85.336 53.336c0-64.813 52.523-117.336 117.328-117.336h490.672c64.805 0 117.328 52.523 117.328 117.336v576c0 64.805-52.523 117.328-117.328 117.328h-490.672c-64.805 0-117.328-52.523-117.328-117.328zM288 554.664h320c17.664 0 32-14.336 32-32s-14.336-32-32-32h-320c-17.664 0-32 14.336-32 32s14.336 32 32 32zM288 426.664h320c17.664 0 32-14.336 32-32s-14.336-32-32-32h-320c-17.664 0-32 14.336-32 32s14.336 32 32 32zM288 298.664h320c17.664 0 32-14.336 32-32s-14.336-32-32-32h-320c-17.664 0-32 14.336-32 32s14.336 32 32 32zM693.336 810.664c100.008 0 181.328-81.359 181.328-181.328v-576c0-3.672-0.852-7.086-1.063-10.672h33.063c64.727 0 117.336 52.609 117.336 117.336v682.664c0 64.727-52.609 117.336-117.336 117.336h-512c-64.727 0-117.328-52.609-117.328-117.336v-32z" />
<glyph unicode="&#xe911;" glyph-name="subscribe" d="M784 704v-5.040c14.576-6.944 30.8-10.96 48-10.96s33.424 4.016 48 10.96v5.040c0 26.464-21.536 48-48 48s-48-21.536-48-48zM792.32 773.040c-5.248 7.696-8.32 16.976-8.32 26.96 0 26.464 21.536 48 48 48s48-21.536 48-48c0-9.984-3.072-19.264-8.32-26.96 19.504-11.248 34.016-30.208 38.688-52.928 20.72 20.352 33.632 48.624 33.632 79.888 0 61.744-50.24 112-112 112s-112-50.256-112-112c0-31.264 12.912-59.536 33.632-79.872 4.672 22.72 19.184 41.664 38.688 52.912zM848 800c0-8.837-7.163-16-16-16s-16 7.163-16 16c0 8.837 7.163 16 16 16s16-7.163 16-16zM880 448c0-8.837-7.163-16-16-16s-16 7.163-16 16c0 8.837 7.163 16 16 16s16-7.163 16-16zM942.368 368.128c20.72 20.336 33.632 48.608 33.632 79.872 0 61.744-50.24 112-112 112s-112-50.256-112-112c0-31.264 12.912-59.536 33.632-79.872 4.672 22.72 19.184 41.664 38.688 52.928-5.248 7.68-8.32 16.96-8.32 26.944 0 26.464 21.536 48 48 48s48-21.536 48-48c0-9.984-3.072-19.264-8.32-26.96 19.504-11.248 34.016-30.192 38.688-52.912zM816 352v-5.040c14.576-6.944 30.8-10.96 48-10.96s33.424 4.016 48 10.96v5.040c0 26.464-21.536 48-48 48s-48-21.536-48-48zM848 96c0-8.837-7.163-16-16-16s-16 7.163-16 16c0 8.837 7.163 16 16 16s16-7.163 16-16zM832 48c-26.464 0-48-21.536-48-48v-5.040c14.576-6.944 30.8-10.96 48-10.96s33.424 4.016 48 10.96v5.040c0 26.464-21.536 48-48 48zM832 208c-61.76 0-112-50.256-112-112 0-31.264 12.912-59.536 33.632-79.872 4.672 22.72 19.184 41.664 38.688 52.928-5.248 7.68-8.32 16.96-8.32 26.944 0 26.464 21.536 48 48 48s48-21.536 48-48c0-9.984-3.072-19.264-8.32-26.96 19.504-11.248 34.016-30.208 38.688-52.928 20.72 20.352 33.632 48.624 33.632 79.888 0 61.744-50.24 112-112 112zM528 448c0 132.336-107.664 240-240 240s-240-107.664-240-240 107.664-240 240-240 240 107.664 240 240zM176 275.728v344.544l287.104-172.272zM208 563.728v-231.456l192.896 115.728zM486.944 633.056l217.008 101.264c-4.864 9.456-8.64 19.504-11.328 30.032l-230.432-107.536c8.8-7.344 16.96-15.376 24.752-23.76zM455.792 234.208l233.936-116.976c1.632 10.976 4.432 21.552 8.4 31.584l-216.512 108.256c-8.080-8.192-16.752-15.744-25.824-22.864zM559.2 464c0.304-5.328 0.8-10.592 0.8-16s-0.496-10.672-0.8-16h161.744c-0.592 5.264-0.944 10.592-0.944 16s0.352 10.736 0.944 16z" />
<glyph unicode="&#xe912;" glyph-name="pin" d="M512 960c-188.208 0-341.334-153.126-341.334-341.334 0-56.5 14.126-112.52 40.98-162.208l281.688-509.458c3.75-6.792 10.896-11 18.666-11s14.916 4.208 18.666 11l281.792 509.626c26.75 49.52 40.876 105.542 40.876 162.042 0 188.206-153.126 341.332-341.334 341.332zM512 448c-94.104 0-170.666 76.562-170.666 170.666s76.562 170.666 170.666 170.666 170.666-76.562 170.666-170.666c0-94.104-76.562-170.666-170.666-170.666z" />
<glyph unicode="&#xe913;" glyph-name="group-1" d="M876.182 413.359h-79.192c8.072-22.1 12.482-45.95 12.482-70.808v-299.301c0-10.364-1.804-20.312-5.086-29.564h130.922c48.906 0 88.692 39.788 88.692 88.692v163.162c0.002 81.506-66.31 147.818-147.818 147.818zM214.53 342.549c0 24.86 4.41 48.708 12.482 70.808h-79.192c-81.508 0-147.82-66.312-147.82-147.82v-163.162c0-48.904 39.786-88.692 88.692-88.692h130.924c-3.282 9.256-5.086 19.202-5.086 29.566v299.301zM602.523 490.369h-181.044c-81.508 0-147.82-66.312-147.82-147.82v-299.301c0-16.326 13.236-29.564 29.564-29.564h417.557c16.328 0 29.564 13.236 29.564 29.564v299.301c0 81.508-66.312 147.82-147.82 147.82zM512.001 882.32c-98.024 0-177.772-79.748-177.772-177.774 0-66.49 36.698-124.56 90.894-155.048 25.706-14.46 55.342-22.724 86.878-22.724s61.172 8.264 86.878 22.724c54.198 30.488 90.894 88.56 90.894 155.048 0 98.024-79.748 177.774-177.772 177.774zM199.836 716.622c-73.31 0-132.95-59.64-132.95-132.95s59.64-132.95 132.95-132.95c18.596 0 36.304 3.852 52.39 10.776 27.812 11.974 50.744 33.17 64.934 59.72 9.96 18.634 15.626 39.892 15.626 62.454 0 73.308-59.64 132.95-132.95 132.95zM824.166 716.622c-73.31 0-132.95-59.64-132.95-132.95 0-22.564 5.666-43.822 15.626-62.454 14.19-26.552 37.122-47.748 64.934-59.72 16.086-6.924 33.794-10.776 52.39-10.776 73.31 0 132.95 59.64 132.95 132.95s-59.64 132.95-132.95 132.95z" />
<glyph unicode="&#xe914;" glyph-name="call" d="M941.835 287.861c-62.693 0-124.251 9.805-182.584 29.083-28.584 9.749-63.723 0.805-81.168-17.112l-115.139-86.917c-133.528 71.277-215.779 153.501-286.083 286.027l84.36 112.139c21.917 21.888 29.779 53.861 20.36 83.861-19.36 58.64-29.195 120.168-29.195 182.888 0.003 45.309-36.859 82.171-82.165 82.171h-188.053c-45.307 0-82.168-36.861-82.168-82.168 0-519.333 422.501-941.832 941.835-941.832 45.307 0 82.168 36.861 82.168 82.168v187.528c-0.003 45.304-36.864 82.165-82.168 82.165z" />
<glyph unicode="&#xe915;" glyph-name="buffer-1" d="M511.559 801.103h0.883c9.151-0.146 17.982 3.369 24.53 9.764s10.27 15.141 10.339 24.293v89.529c0.050 9.368-3.71 18.353-10.417 24.894-10.347 10.327-25.987 13.21-39.336 7.252s-21.646-19.526-20.869-34.123v-87.552c0.069-9.152 3.792-17.898 10.339-24.293s15.378-9.91 24.53-9.764zM512.441 94.897h-0.883c-9.151 0.146-17.982-3.369-24.53-9.764s-10.27-15.141-10.339-24.293v-89.529c0.028-10.412 4.639-20.283 12.605-26.987s18.48-9.561 28.743-7.811c17.391 3.648 29.702 19.188 29.272 36.952v87.375c-0.069 9.152-3.792 17.898-10.339 24.293s-15.378 9.91-24.53 9.764zM331.052 792.276c8.144-16.907 28.067-24.52 45.411-17.353s26.080 26.624 19.913 44.348l-34.092 82.644c-4.020 9.869-12.314 17.371-22.535 20.384s-21.258 1.21-29.989-4.901c-13.844-10.712-18.613-29.475-11.564-45.497zM692.948 103.724c-8.144 16.907-28.067 24.52-45.411 17.353s-26.080-26.624-19.913-44.348l34.092-82.644c7.459-18.039 28.13-26.615 46.168-19.156s26.615 28.13 19.156 46.168zM199.857 810.108c-6.987 7.055-16.63 10.83-26.55 10.392s-19.193-5.045-25.533-12.688c-11.594-14.836-10.068-36.041 3.531-49.064l62.005-62.005c8.925-8.925 21.934-12.411 34.126-9.144s21.715 12.79 24.982 24.982c3.267 12.192-0.219 25.201-9.144 34.126zM810.708 199.256c-8.925 8.925-21.934 12.411-34.126 9.144s-21.715-12.79-24.982-24.982c-3.267-12.192 0.219-25.201 9.144-34.126l61.987-61.987c12.269-12.849 31.974-15.079 46.804-5.297 8.515 6.010 13.939 15.475 14.821 25.86s-2.869 20.629-10.248 27.989zM377.203 121.556c-8.463 3.928-18.159 4.248-26.862 0.885s-15.665-10.119-19.288-18.717l-34.092-82.626c-7.459-18.039 1.117-38.709 19.156-46.168s38.709 1.117 46.168 19.156l34.163 82.679c3.415 8.489 3.304 17.99-0.308 26.397s-10.427 15.027-18.936 18.394zM124.84 412.69c9.152 0.069 17.898 3.792 24.293 10.339s9.91 15.378 9.764 24.53v0.883c0.146 9.151-3.369 17.982-9.764 24.53s-15.141 10.27-24.293 10.339h-89.529c-9.908-0.001-19.359-4.164-26.048-11.474s-9.998-17.093-9.121-26.962c2.281-18.675 18.337-32.587 37.146-32.185zM988.69 483.31h-89.529c-9.152-0.069-17.898-3.792-24.293-10.339s-9.91-15.378-9.764-24.53v-0.883c-0.146-9.151 3.369-17.982 9.764-24.53s15.141-10.27 24.293-10.339h87.375c17.77-0.428 33.312 11.892 36.952 29.29 1.776 10.266-1.072 20.793-7.782 28.763s-16.598 12.57-27.016 12.568zM185.856 312.497c-3.224 8.711-9.835 15.746-18.329 19.505s-18.147 3.919-26.762 0.446l-82.679-34.163c-13.204-5.491-21.831-18.362-21.892-32.662 0.459-12.219 7.036-23.387 17.499-29.714s23.408-6.964 34.442-1.695l79.625 32.839c8.465 3.581 15.143 10.402 18.543 18.941s3.239 18.084-0.447 26.503zM58.086 597.716l82.679-34.163c17.724-6.167 37.18 2.57 44.348 19.913s-0.446 37.267-17.353 45.411l-79.625 32.839c-16.029 7.052-34.801 2.291-45.533-11.546-6.083-8.727-7.87-19.744-4.859-29.946s10.496-18.483 20.342-22.507zM965.914 298.284l-82.679 34.163c-17.724 6.167-37.18-2.57-44.348-19.913s0.446-37.267 17.353-45.411l82.662-34.163c18.039-7.459 38.709 1.117 46.168 19.156s-1.117 38.709-19.156 46.168zM262.109 198.603c-6.367 6.596-15.105 10.376-24.272 10.498s-18.003-3.422-24.544-9.845l-63.4-63.4c-7.379-7.36-11.13-17.604-10.248-27.989s6.306-19.849 14.821-25.86c14.83-9.783 34.535-7.553 46.804 5.297l61.987 61.987c6.519 6.624 10.076 15.607 9.86 24.898s-4.188 18.099-11.008 24.413zM686.68 479.585l-247.172 141.241c-10.946 5.47-23.943 4.883-34.351-1.551s-16.743-17.798-16.744-30.034v-282.483c0-12.236 6.336-23.6 16.744-30.034s23.405-7.021 34.351-1.551l247.172 141.241c11.965 5.98 19.524 18.208 19.524 31.585s-7.559 25.605-19.524 31.585zM653.877 790.51c4.326-1.795 9.189-1.796 13.516-0.005s7.766 5.229 9.559 9.556l33.774 81.567c3.397 8.927-0.92 18.936-9.745 22.591s-18.955-0.371-22.865-9.085l-33.792-81.532c-1.8-4.329-1.805-9.195-0.013-13.527s5.233-7.773 9.564-9.566zM786.644 705.006c4.685-0.013 9.18 1.85 12.482 5.173l62.446 62.411c6.899 6.899 6.899 18.083 0 24.982s-18.083 6.899-24.982 0l-62.429-62.411c-5.060-5.048-6.578-12.648-3.845-19.252s9.179-10.908 16.327-10.903zM854.51 589.877c1.792-4.327 5.231-7.765 9.559-9.556s9.19-1.79 13.516 0.005l81.549 33.774c9.010 3.73 13.29 14.057 9.56 23.066s-14.057 13.29-23.066 9.56l-81.567-33.774c-4.327-1.792-7.765-5.231-9.556-9.559s-1.79-9.19 0.005-13.516z" />
<glyph unicode="&#xe916;" glyph-name="menu-2" d="M640 448c0-70.692-57.308-128-128-128s-128 57.308-128 128c0 70.692 57.308 128 128 128s128-57.308 128-128zM640 64c0-70.692-57.308-128-128-128s-128 57.308-128 128c0 70.692 57.308 128 128 128s128-57.308 128-128zM640 832c0-70.692-57.308-128-128-128s-128 57.308-128 128c0 70.692 57.308 128 128 128s128-57.308 128-128z" />
<glyph unicode="&#xe917;" glyph-name="user-3" d="M512 598c-66.182 0-120-53.818-120-120s53.818-120 120-120 120 53.818 120 120-53.818 120-120 120zM998.922 537.59l-79.696 12.95c-9.99 39.786-25.694 77.578-46.816 112.822l45.82 64.19c8.526 11.924 7.178 28.272-3.194 38.642l-84.844 84.844c-10.43 10.4-26.748 11.778-38.642 3.194l-64.19-45.82c-35.244 21.124-73.038 36.826-112.822 46.816l-12.95 79.696c-2.4 14.47-14.91 25.076-29.588 25.076h-120c-14.678 0-27.188-10.606-29.59-25.078l-12.95-79.696c-39.786-9.99-77.578-25.694-112.822-46.816l-64.19 45.82c-11.924 8.584-28.3 7.208-38.642-3.194l-84.844-84.842c-10.372-10.372-11.718-26.718-3.194-38.642l45.82-64.19c-21.124-35.244-36.826-73.038-46.816-112.822l-79.696-12.95c-14.47-2.402-25.076-14.912-25.076-29.59v-120c0-14.678 10.606-27.188 25.078-29.59l79.696-12.95c9.99-39.786 25.694-77.578 46.816-112.822l-45.82-64.19c-8.526-11.924-7.178-28.272 3.194-38.642l84.844-84.844c10.342-10.342 26.718-11.66 38.642-3.194l64.19 45.82c35.244-21.124 73.038-36.826 112.822-46.816l12.95-79.696c2.4-14.47 14.91-25.076 29.588-25.076h120c14.678 0 27.188 10.606 29.59 25.078l12.95 79.696c39.786 9.99 77.578 25.694 112.822 46.816l64.19-45.82c11.894-8.466 28.212-7.148 38.642 3.194l84.844 84.844c10.372 10.372 11.718 26.718 3.194 38.642l-45.82 64.19c21.124 35.244 36.826 73.038 46.816 112.822l79.696 12.95c14.47 2.4 25.076 14.91 25.076 29.588v120c0 14.678-10.606 27.188-25.078 29.59zM512 118c-181.962 0-330 148.038-330 330s148.038 330 330 330 330-148.038 330-330-148.038-330-330-330zM650.58 364.536c-33.034-40.268-82.546-66.536-138.58-66.536s-105.546 26.268-138.582 66.536c-28.758-25.488-49.736-58.902-61.308-96.394 49.458-54.916 120.338-90.142 199.89-90.142s150.432 35.226 199.888 90.142c-11.572 37.492-32.548 70.906-61.308 96.394z" />
<glyph unicode="&#xe918;" glyph-name="send" d="M1024 960l-1024-576.001 327.251-121.203 504.751 473.203-383.93-517.954 0.312-0.116-0.382 0.116v-282.047l183.52 214.105 232.48-86.106z" />
<glyph unicode="&#xe919;" glyph-name="black-back-closed-envelope-shape" d="M932.564 45.713c23.018 0 42.963 7.6 59.918 22.607l-290.116 290.127c-6.961-4.984-13.707-9.831-20.080-14.44-21.711-15.996-39.332-28.478-52.863-37.422-13.529-8.965-31.529-18.102-53.998-27.431-22.484-9.34-43.431-13.996-62.863-13.996h-1.138c-19.433 0-40.38 4.653-62.863 13.996-22.482 9.329-40.483 18.467-53.998 27.431-13.529 8.944-31.14 21.425-52.863 37.422-6.053 4.438-12.767 9.307-20.025 14.518l-290.171-290.205c16.953-15.007 36.911-22.607 59.927-22.607h841.132zM57.72 541.14c-21.709 14.473-40.96 31.049-57.72 49.721v-441.404l255.707 255.707c-51.156 35.714-117.068 80.987-197.986 135.977zM966.858 541.14c-77.833-52.68-143.984-98.032-198.462-136.079l255.604-255.616v441.415c-16.388-18.296-35.433-34.861-57.142-49.721zM932.564 850.287h-841.13c-29.345 0-51.905-9.909-67.71-29.707-15.817-19.807-23.713-44.578-23.713-74.285 0-23.996 10.478-49.996 31.425-78.007 20.947-28 43.236-49.994 66.856-65.992 12.949-9.149 51.998-36.296 117.148-81.432 35.169-24.371 65.754-45.614 92.036-63.945 22.403-15.609 41.723-29.127 57.674-40.345 1.831-1.285 4.711-3.345 8.533-6.077 4.118-2.958 9.329-6.711 15.758-11.354 12.38-8.954 22.665-16.191 30.856-21.72 8.18-5.531 18.091-11.709 29.718-18.569 11.618-6.851 22.575-12.003 32.86-15.429 10.287-3.425 19.809-5.142 28.569-5.142h1.138c8.758 0 18.283 1.718 28.571 5.142 10.283 3.426 21.231 8.567 32.858 15.429 11.616 6.86 21.514 13.051 29.72 18.569 8.191 5.529 18.476 12.765 30.858 21.72 6.416 4.642 11.627 8.398 15.745 11.344 3.824 2.744 6.702 4.791 8.545 6.087 12.426 8.647 31.791 22.109 57.826 40.187 47.374 32.916 117.144 81.363 209.602 145.535 27.807 19.422 51.039 42.86 69.71 70.281 18.638 27.42 27.982 56.183 27.982 86.279 0 25.145-9.060 46.66-27.14 64.581-18.1 17.898-39.534 26.851-64.296 26.851z" />
<glyph unicode="&#xe91a;" glyph-name="microphone" d="M863.332 480.132c0 16.568-13.434 30-30 30-16.57 0-30-13.432-30-30 0-160.64-130.692-291.332-291.332-291.332s-291.332 130.692-291.332 291.332c0 16.568-13.434 30-30 30-16.57 0-30-13.432-30-30 0-183.618 141.598-334.766 321.332-350.040v-134.092h-66.398c-16.57 0-30-13.432-30-30s13.43-30 30-30h192.8c16.566 0 30 13.432 30 30s-13.434 30-30 30h-66.402v134.094c179.734 15.274 321.332 166.422 321.332 350.038zM512 960c-87.414 0-158.532-71.118-158.532-158.532v-321.336c0-87.414 71.118-158.53 158.532-158.53 87.418 0 158.536 71.118 158.536 158.532v321.334c0 87.414-71.118 158.532-158.536 158.532z" />
<glyph unicode="&#xe91b;" glyph-name="add-1" d="M522.667 874.667h-46.933c-14.080 49.067-59.307 85.333-113.067 85.333s-98.987-36.267-113.067-85.333h-46.933c-17.493 0-32-14.507-32-32v-64c0-40.96 33.707-74.667 74.667-74.667h234.667c40.96 0 74.667 33.707 74.667 74.667v64c0 17.493-14.507 32-32 32zM608 832h-10.667v-53.333c0-64.853-52.48-117.333-117.333-117.333h-234.667c-64.853 0-117.333 52.48-117.333 117.333v53.333h-10.667c-64.853 0-117.333-52.48-117.333-117.333v-533.333c0-64.853 52.48-117.333 117.333-117.333h281.173c-21.333 45.653-34.133 96-35.413 149.333h-203.093c-17.493 0-32 14.507-32 32s14.507 32 32 32h206.507c3.84 26.027 10.24 50.773 18.773 74.667h-225.28c-17.493 0-32 14.507-32 32s14.507 32 32 32h256c16.64 27.307 36.267 52.48 59.307 74.667h-315.307c-17.493 0-32 14.507-32 32s14.507 32 32 32h402.773c49.067 25.6 104.107 40.96 162.56 42.24v117.76c0 64.853-52.48 117.333-117.333 117.333zM736 512c-158.805 0-288-129.195-288-288s129.195-288 288-288 288 129.195 288 288-129.195 288-288 288zM853.333 181.333h-74.667v-74.667c0-23.552-19.115-42.667-42.667-42.667s-42.667 19.115-42.667 42.667v74.667h-74.667c-23.552 0-42.667 19.115-42.667 42.667s19.115 42.667 42.667 42.667h74.667v74.667c0 23.552 19.115 42.667 42.667 42.667s42.667-19.115 42.667-42.667v-74.667h74.667c23.552 0 42.667-19.115 42.667-42.667s-19.115-42.667-42.667-42.667z" />
<glyph unicode="&#xe91c;" glyph-name="grinning" d="M512 960c-282.304 0-512-229.696-512-512s229.696-512 512-512 512 229.696 512 512-229.696 512-512 512zM704 640c35.264 0 64-28.736 64-64s-28.736-64-64-64c-35.264 0-64 28.736-64 64s28.736 64 64 64zM320 640c35.264 0 64-28.736 64-64s-28.736-64-64-64-64 28.736-64 64 28.736 64 64 64zM512 64c-171.2 0-323.072 114.88-369.344 279.296-2.752 9.728-0.768 20.032 5.312 28.032 6.016 8 15.424 12.672 25.472 12.672h677.12c9.984 0 19.456-4.672 25.472-12.672s8-18.304 5.312-28.032c-46.272-164.416-198.144-279.296-369.344-279.296z" />
<glyph unicode="&#xe91d;" glyph-name="computing-cloud" d="M825.814 531.84c-29.014 146.774-158.508 257.494-313.814 257.494-123.306 0-230.186-69.974-283.734-172.16-128.212-13.868-228.266-122.454-228.266-254.508 0-141.44 114.56-256 256-256h554.666c117.76 0 213.334 95.574 213.334 213.334 0 112.64-87.68 203.946-198.186 211.84zM597.334 405.334v-170.666h-170.666v170.666h-128l213.332 213.332 213.334-213.334h-128z" />
<glyph unicode="&#xe91e;" glyph-name="check" d="M35.328 390.997c-11.136-12.971-16.555-29.483-15.232-46.549s9.173-32.597 22.187-43.691l315.861-270.763c11.733-10.027 26.283-15.403 41.557-15.403 1.877 0 3.797 0.085 5.717 0.256 17.28 1.536 32.853 9.771 43.861 23.125l540.245 657.536c10.837 13.227 15.915 29.867 14.251 46.891-1.707 17.024-9.856 32.384-23.083 43.264l-98.901 81.237c-27.264 22.357-67.627 18.432-90.069-8.832l-415.787-506.069-167.083 143.147c-26.795 22.869-67.243 19.84-90.24-6.955z" />
<glyph unicode="&#xe91f;" glyph-name="delete" d="M808.352 960l-296.352-296.352-296.352 296.352-215.648-215.648 296.352-296.352-296.352-296.352 215.648-215.648 296.352 296.352 296.352-296.352 215.648 215.648-296.352 296.352 296.352 296.352z" />
<glyph unicode="&#xe920;" glyph-name="mail-2" d="M62 553.578v-527.578c0-13.854 3.406-26.824 9.020-38.558l278.558 278.558c-106.746 106.746-176.598 176.6-287.578 287.578zM674.422 266l278.558-278.558c5.614 11.734 9.020 24.704 9.020 38.558v527.578c-106.504-106.504-179.664-179.664-287.578-287.578zM512 656c-16.524 0-30-13.448-30-30s13.476-30 30-30c20.776 0 26.286 14.246 29.582 32.066-1.12 15.538-13.79 27.934-29.582 27.934zM619.578 236h-215.156l-290.98-290.98c11.734-5.614 24.704-9.020 38.558-9.020h720c13.854 0 26.824 3.406 38.558 9.020l-290.98 290.98zM92 608.422l90-90v180zM842 698.422v-180l90 90zM743.562 960h-468.75c-18.122 0-32.812-14.69-32.812-32.812v-468.766l162.422-162.422h215.156l162.422 162.422v463.14c0 21.228-17.21 38.438-38.438 38.438zM571.978 559.39c-15.956-14.382-36.856-23.39-59.978-23.39-49.628 0-90 40.372-90 90s40.372 90 90 90c49.628 0 90-40.372 90-90 0-39.656 60-39.656 60 0 0 82.706-67.266 150-150 150s-150-67.294-150-150c0-51.328 25.898-98.584 69.316-126.416 44.532-28.476 99.668-31.172 151.406-7.412 35.766 16.616 61.212-37.902 25.078-54.492-68.766-31.636-145.142-29.398-208.828 11.396-60.702 38.906-96.972 105.030-96.972 176.924 0 115.782 94.218 210 210 210s210-94.218 210-210c0-77.12-91.696-119.274-150.022-66.61z" />
<glyph unicode="&#xe921;" glyph-name="monitor" d="M0 835.658v-452.65h1024v452.65zM1024 193.88v126.432h-1024v-126.432h440.946v-70.844h-123.298v-62.694h388.702v62.694h-123.298v70.844h440.948zM533.504 256.574v-18.202h-43.364v43.364h43.364v-25.162z" />
<glyph unicode="&#xe922;" glyph-name="paperclip-1" d="M980.633 587.065c-16.708 16.618-43.723 16.544-60.341-0.162l-512.908-515.682c-66.544-66.544-174.62-66.544-241.288 0.090-66.618 66.652-66.618 174.728 0.008 241.354l528.090 530.864c41.545 41.543 109.089 41.543 150.754-0.090 41.653-41.653 41.653-109.189-0.010-150.854l-437.474-437.47c-0.028-0.028-0.052-0.060-0.080-0.088-16.666-16.574-43.601-16.552-60.233 0.080-16.66 16.66-16.66 43.663 0 60.323l211.165 211.209c16.66 16.664 16.658 43.681-0.006 60.341s-43.681 16.658-60.341-0.006l-211.163-211.205c-49.983-49.983-49.983-131.017 0.004-181.002 49.985-49.985 131.019-49.985 181.006 0 0.058 0.058 0.104 0.12 0.16 0.178l437.302 437.302c74.99 74.99 74.99 196.557 0 271.546-75 74.946-196.559 74.946-271.504 0l-528.090-530.868c-99.87-99.87-99.87-261.964 0.072-361.956 100.008-99.956 262.104-99.956 362.052-0.008l512.99 515.762c16.616 16.708 16.542 43.723-0.164 60.341z" />
<glyph unicode="&#xe923;" glyph-name="movie" d="M0 899.918v-600.816h1024v600.816h-1024zM408.556 413.072v353.44l282.754-176.722-282.754-176.718zM1024 140.278v96.13h-1024v-96.13h336.458v-81.502h-112.85v-62.694h576.784v62.694h-112.85v81.502zM471.25 653.398v-127.212l101.768 63.606z" />
<glyph unicode="&#xe924;" glyph-name="key-1" d="M542.254 541.091c-38.4 108.452-141.498 186.181-262.981 186.181-154.298 0-279.273-124.975-279.273-279.273s124.975-279.273 279.273-279.273c121.484 0 224.581 77.732 262.981 186.181h202.473v-186.181h186.181v186.181h93.092v186.183h-481.746zM279.273 354.909c-51.432 0-93.092 41.657-93.092 93.092s41.66 93.090 93.092 93.090c51.432 0 93.092-41.657 93.092-93.092s-41.66-93.090-93.092-93.090z" />
<glyph unicode="&#xe925;" glyph-name="share-2" d="M117.336 789.336c0-76.586 62.078-138.672 138.664-138.672s138.664 62.086 138.664 138.672c0 76.578-62.078 138.664-138.664 138.664s-138.664-62.086-138.664-138.664zM256 618.664c94.125 0 170.664 76.547 170.664 170.672 0 94.117-76.539 170.664-170.664 170.664s-170.664-76.547-170.664-170.664c0-94.125 76.539-170.672 170.664-170.672zM256 896c58.836 0 106.664-47.875 106.664-106.664 0-58.797-47.828-106.672-106.664-106.672s-106.664 47.875-106.664 106.672c0 58.789 47.828 106.664 106.664 106.664zM117.336 106.664c0-76.578 62.078-138.664 138.664-138.664s138.664 62.086 138.664 138.664c0 76.586-62.078 138.672-138.664 138.672s-138.664-62.086-138.664-138.672zM256-64c94.125 0 170.664 76.547 170.664 170.664 0 94.125-76.539 170.672-170.664 170.672s-170.664-76.547-170.664-170.672c0-94.117 76.539-170.664 170.664-170.664zM256 213.336c58.836 0 106.664-47.875 106.664-106.672 0-58.789-47.828-106.664-106.664-106.664s-106.664 47.875-106.664 106.664c0 58.797 47.828 106.672 106.664 106.672zM714.664 448c0-76.586 62.086-138.664 138.672-138.664 76.578 0 138.664 62.078 138.664 138.664s-62.086 138.664-138.664 138.664c-76.586 0-138.672-62.078-138.672-138.664zM853.336 277.336c94.117 0 170.664 76.539 170.664 170.664s-76.547 170.664-170.664 170.664c-94.125 0-170.672-76.539-170.672-170.664s76.547-170.664 170.672-170.664zM853.336 554.664c58.836 0 106.664-47.867 106.664-106.664s-47.828-106.664-106.664-106.664c-58.844 0-106.672 47.867-106.672 106.664s47.828 106.664 106.672 106.664zM752.594 468.477c14.852 0 29.273 7.727 37.125 21.547 11.648 20.438 4.477 46.508-15.961 58.203l-395.898 225.703c-20.438 11.734-46.508 4.563-58.203-15.953-11.648-20.438-4.477-46.508 15.961-58.203l395.906-225.703c6.656-3.797 13.906-5.594 21.070-5.594zM356.734 116.477c7.172 0 14.422 1.797 21.078 5.594l395.906 225.703c20.438 11.648 27.602 37.719 15.953 58.203-11.602 20.477-37.711 27.688-58.195 15.953l-395.906-225.703c-20.438-11.648-27.602-37.719-15.953-58.203 7.891-13.82 22.313-21.547 37.117-21.547z" />
<glyph unicode="&#xe926;" glyph-name="opinion" d="M441.804 688.664l-34.716-0.662c-3.6-0.069-7.010-1.598-9.45-4.244s-3.694-6.168-3.471-9.759l5.885-96.115-134.242 106.029c-2.38 1.813-5.275 2.809-8.256 2.844l-147.051-0.868c-24.312-0.249-44.321 18.273-44.51 41.193l-1.211 188.184c-0.069 11.074 4.442 21.675 12.465 29.312 8.411 8.101 19.639 12.637 31.323 12.646l331.326 2.775c24.321 0.189 44.286-18.273 44.484-41.185l1.203-188.193c0.069-11.074-4.442-21.675-12.465-29.312-8.411-8.101-19.63-12.637-31.314-12.646zM384.279 879.486h-218.184c-7.294 0-13.196-5.902-13.196-13.196 0-7.285 5.902-13.196 13.196-13.196h218.184c7.294 0 13.196 5.911 13.196 13.196 0 7.294-5.902 13.196-13.196 13.196zM384.279 802.511h-132.008c-7.285 0-13.196-5.902-13.196-13.196 0-7.285 5.911-13.196 13.196-13.196h132.008c7.294 0 13.196 5.911 13.196 13.196 0 7.294-5.902 13.196-13.196 13.196zM617.995 380.276v63.822l0.223 15.223c-0.636 31.649 14.879 61.442 41.168 79.062 7.766 5.215 16.357 9.089 25.403 11.477 71.227-122.086 186.122-147.712 219.112-152.506v-19.029c-0.198-38.023-15.515-74.406-42.585-101.107-27.070-26.709-63.659-41.537-101.682-41.211-77.885 0.567-141.639 65.291-141.639 144.267zM903.523 287.485c17.465 27.079 26.761 58.616 26.769 90.84v27.311c-0.137 9.261-7.534 16.769-16.795 17.036-9.012 0.859-138.030 15.455-210.615 148.297-2.646 4.811-7.99 7.5-13.428 6.744-16.117-2.302-31.503-8.239-44.991-17.345-33.719-22.611-53.582-60.85-52.697-101.433l-0.163-15.026v-63.633c0.112-27.405 6.813-54.389 19.536-78.676-18.591 22.929-33.883 48.341-45.446 75.497-21.323 50.901-22.388 105.368-3.015 153.382 3.703 9.167 24.098 54.415 62.362 45.343 6.649-1.581 13.41 2.182 15.567 8.668l0.919 2.758c14.252 33.35 37.697 59.071 67.825 74.406 31.975 16.271 68.229 19.287 104.818 8.72 60.566-17.508 110.419-57.877 136.785-110.771 15.532-31.572 22.852-66.545 21.28-101.699-2.62-63.014-26.881-123.211-68.71-170.418zM760.767 209.609c21.95-0.069 43.693 4.218 63.959 12.637v-47.362c0-35.223-28.556-63.779-63.779-63.779s-63.779 28.556-63.779 63.779v47.697c19.845-8.376 41.142-12.783 62.679-12.972 0.421 0 0.49 0 0.919 0zM499.234 47.154c0.189 64.767 52.576 117.258 117.343 117.567h54.449c5.438-45.609 44.132-79.956 90.067-79.956s84.629 34.347 90.067 79.956h53.504c64.509 0 117.996-53.058 117.996-117.567v-111.158h-523.428z" />
<glyph unicode="&#xe927;" glyph-name="menu" d="M384 576h255.999v-255.999h-255.999v255.999zM0 960h255.999v-255.999h-255.999v255.999zM384 191.999h255.999v-255.999h-255.999v255.999zM0 576h255.999v-255.999h-255.999v255.999zM0 191.999h255.999v-255.999h-255.999v255.999zM768.001 960h255.999v-255.999h-255.999v255.999zM384 960h255.999v-255.999h-255.999v255.999zM768.001 576h255.999v-255.999h-255.999v255.999zM768.001 191.999h255.999v-255.999h-255.999v255.999z" />
<glyph unicode="&#xe928;" glyph-name="movie-clapper-open" d="M219.559 527.072c-1.86 15.638-7.407 30.158-15.771 42.651l749.205 250.148-39.326 117.796c-5.717 17.118-24.234 26.356-41.341 20.646l-814.971-272.105c-17.107-5.71-26.363-24.223-20.646-41.341l19.284-57.75c-19.251-17.875-31.328-43.374-31.328-71.657 0-36.628 20.248-68.597 50.129-85.357v-461.425c0-18.052 14.641-32.675 32.678-32.675h859.194c18.030 0 32.671 14.627 32.671 32.675v558.393h-779.779zM697.079 861.367l99.19 33.118-23.868-96.478-99.19-33.118 23.868 96.478zM452.013 779.545l99.198 33.118-23.868-96.474-99.19-33.121 23.861 96.478zM122.465 465.631c-27.467 0-49.819 22.352-49.819 49.826s22.352 49.826 49.819 49.826c27.474 0 49.826-22.352 49.826-49.826s-22.352-49.826-49.826-49.826zM206.958 697.724l99.198 33.118-23.868-96.478-99.198-33.121 23.868 96.481zM304.403 416.743h-104.575l53.192 83.951h104.575l-53.192-83.951zM511.376 500.694h104.575l-53.192-83.951h-104.575l53.192 83.951zM485.707 94.978v221.448l176.358-110.724-176.358-110.724zM821.116 416.743h-104.575l53.192 83.951h104.575l-53.192-83.951z" />
<glyph unicode="&#xe929;" glyph-name="streaming" d="M433.898 456.678v-208.271l190.915 104.136zM971.932 647.593h-937.22c-19.147-0.056-34.656-15.564-34.712-34.712v-642.169c0.056-19.147 15.564-34.656 34.712-34.712h937.22c19.147 0.056 34.656 15.564 34.712 34.712v642.169c-0.056 19.147-15.564 34.656-34.712 34.712zM503.322 595.525c134.196 0 242.983-108.787 242.983-242.983s-108.787-242.983-242.983-242.983-242.983 108.787-242.983 242.983c0.147 134.135 108.848 242.836 242.983 242.983zM937.22 40.136h-106.392c-7.887-30.648-35.521-52.070-67.167-52.070s-59.28 21.422-67.167 52.070h-627.070c-9.585 0-17.356 7.771-17.356 17.356s7.771 17.356 17.356 17.356h627.070c7.89 30.646 35.522 52.065 67.167 52.065s59.278-21.419 67.167-52.065h106.392c9.585 0 17.356-7.771 17.356-17.356s-7.771-17.356-17.356-17.356zM503.322 144.271c115.025 0 208.271 93.246 208.271 208.271s-93.246 208.271-208.271 208.271-208.271-93.246-208.271-208.271c0.096-114.985 93.286-208.175 208.271-208.271zM399.186 456.678c-0.052 12.245 6.368 23.608 16.884 29.882s23.564 6.527 34.316 0.665l190.915-104.136c11.227-6.059 18.225-17.789 18.225-30.546s-6.998-24.487-18.225-30.546l-190.915-104.136c-5.073-2.714-10.734-4.144-16.488-4.165-9.224-0.060-18.088 3.578-24.611 10.101s-10.161 15.386-10.101 24.611zM798.373 57.492c0-19.171-15.541-34.712-34.712-34.712s-34.712 15.541-34.712 34.712c0 19.171 15.541 34.712 34.712 34.712s34.712-15.541 34.712-34.712zM763.661 960c-9.585 0-17.356-7.771-17.356-17.356s7.771-17.356 17.356-17.356c124.553-0.138 225.489-101.074 225.627-225.627 0-9.585 7.771-17.356 17.356-17.356s17.356 7.771 17.356 17.356c-0.163 143.714-116.625 260.176-260.339 260.339zM902.508 699.661c0-9.585 7.771-17.356 17.356-17.356s17.356 7.771 17.356 17.356c-0.106 95.81-77.749 173.453-173.559 173.559-9.585 0-17.356-7.771-17.356-17.356s7.771-17.356 17.356-17.356c76.647-0.088 138.759-62.201 138.847-138.847zM746.305 769.085c0-9.585 7.771-17.356 17.356-17.356 28.743-0.032 52.036-23.325 52.068-52.068 0-9.585 7.771-17.356 17.356-17.356s17.356 7.771 17.356 17.356c-0.056 47.904-38.876 86.723-86.78 86.78-9.585 0-17.356-7.771-17.356-17.356z" />
<glyph unicode="&#xe92a;" glyph-name="live-1" d="M501.958 483.93h-448.063c-29.765 0-53.895-24.129-53.895-53.895v-269.474c0-29.765 24.129-53.895 53.895-53.895h610.807c29.765 0 53.895 24.129 53.895 53.895v106.73c-0.030 119.634-97.005 216.609-216.639 216.639zM161.684 160.561h-89.825c-9.922 0-17.965 8.043-17.965 17.965v233.544c0 9.922 8.043 17.965 17.965 17.965s17.965-8.043 17.965-17.965v-215.579h71.86c9.922 0 17.965-8.043 17.965-17.965s-8.043-17.965-17.965-17.965zM251.509 178.526c0-9.922-8.043-17.965-17.965-17.965s-17.965 8.043-17.965 17.965v233.544c0 9.922 8.043 17.965 17.965 17.965s17.965-8.043 17.965-17.965zM448.674 408.028l-53.895-233.544c-1.883-8.154-9.147-13.928-17.516-13.923h-17.965c-8.369-0.005-15.633 5.769-17.516 13.923l-53.895 233.544c-2.232 9.674 3.8 19.326 13.474 21.558s19.326-3.8 21.558-13.474l45.361-196.608 45.361 196.608c1.444 6.258 6.117 11.27 12.258 13.148s12.818 0.337 17.516-4.042 6.701-10.932 5.257-17.19zM592.842 304.281c9.922 0 17.965-8.043 17.965-17.965s-8.043-17.965-17.965-17.965h-71.86v-71.86h71.86c9.922 0 17.965-8.043 17.965-17.965s-8.043-17.965-17.965-17.965h-89.825c-9.922 0-17.965 8.043-17.965 17.965v233.544c0 9.922 8.043 17.965 17.965 17.965h89.825c9.922 0 17.965-8.043 17.965-17.965s-8.043-17.965-17.965-17.965h-71.86v-89.825zM509.072 628.727c60.687 71.662 156.257 103.525 247.806 82.617s163.812-91.1 187.373-182.003c23.561-90.903-5.51-187.359-75.378-250.103-10.405-8.295-15.374-21.661-12.914-34.738s11.947-23.724 24.655-27.67c12.708-3.946 26.557-0.546 35.992 8.837 89.878 80.629 127.309 204.639 97.049 321.531s-123.162 207.162-240.874 234.052c-117.712 26.89-240.596-14.087-318.611-106.244-8.884-9.73-11.73-23.543-7.415-35.992s15.098-21.539 28.098-23.684c13-2.146 26.132 2.996 34.218 13.399zM637.647 553.472c43.061 30.872 102.174 25.87 139.436-11.799s41.621-96.832 10.284-139.556c-8.175-11.373-8.81-26.517-1.617-38.535 6.013-10.404 16.828-17.114 28.82-17.879s23.573 4.515 30.859 14.070c52.307 71.176 45.080 169.823-17.042 232.616s-160.685 71.079-232.419 19.54c-9.904-7.48-15.217-19.564-14.034-31.92s8.693-23.211 19.837-28.676c11.431-5.988 25.236-5.165 35.876 2.138zM736.561 465.965c0-19.843-16.086-35.93-35.93-35.93s-35.93 16.086-35.93 35.93c0 19.843 16.086 35.93 35.93 35.93s35.93-16.086 35.93-35.93z" />
<glyph unicode="&#xe92b;" glyph-name="film" d="M1024 448c0 282.771-229.229 512-512 512s-512-229.229-512-512 229.229-512 512-512h512v85.333h-229.333c143.146 94.771 229.271 254.979 229.333 426.667zM762.792 102.813c-57.188-41.542-137.25-28.875-178.792 28.333-41.542 57.187-28.875 137.229 28.313 178.792 57.208 41.542 137.25 28.875 178.792-28.333 41.563-57.187 28.875-137.229-28.312-178.792zM756.5 662.021c67.229 21.854 139.437-14.937 161.292-82.167 21.833-67.25-14.958-139.458-82.188-161.292-67.229-21.854-139.437 14.937-161.292 82.167-21.833 67.229 14.958 139.458 82.187 161.292zM512 874.667c70.687 0 128-57.313 128-128s-57.313-128-128-128-128 57.313-128 128 57.313 128 128 128zM106.208 579.854c21.854 67.229 94.063 104.021 161.292 82.187 67.229-21.854 104.021-94.062 82.187-161.292-21.854-67.229-94.062-104.021-161.292-82.187s-104.021 94.042-82.188 161.292zM440 131.146c-41.542-57.208-121.604-69.875-178.792-28.333-57.187 41.562-69.875 121.604-28.312 178.792 41.542 57.188 121.604 69.875 178.792 28.313 57.187-41.542 69.854-121.583 28.313-178.771zM469.333 448c0 23.563 19.104 42.667 42.667 42.667s42.667-19.104 42.667-42.667-19.104-42.667-42.667-42.667-42.667 19.104-42.667 42.667z" />
<glyph unicode="&#xe92c;" glyph-name="movie-symbol-of-video-camera" d="M960 512l-192-128c0 38.848-17.664 73.216-44.992 96.704 65.056 39.2 108.992 109.824 108.992 191.296 0 123.713-100.288 224-224 224s-224-100.288-224-224c0-62.752 25.951-119.328 67.552-160h-117.377c30.656 34.016 49.825 78.592 49.825 128 0 106.048-85.952 192-192 192s-192-85.952-192-192c0-57.856 26.144-109.12 66.624-144.32-39.519-21.792-66.624-63.359-66.624-111.68v-256c0-70.688 57.312-128 128-128h512c70.688 0 128 57.312 128 128l192-128c35.36 0 64 28.64 64 64v384c0 35.36-28.64 64-64 64zM192 512c-70.688 0-128 57.312-128 128s57.312 128 128 128 128-57.312 128-128-57.312-128-128-128zM608 511.649c-88.576 0-160.351 71.809-160.351 160.351 0 88.576 71.809 160.351 160.351 160.351s160.351-71.775 160.351-160.351-71.777-160.351-160.351-160.351z" />
<glyph unicode="&#xe92d;" glyph-name="video-player" d="M442 339.696l189.534 108.304-189.534 108.304zM992 960h-960c-16.568 0-30-13.432-30-30v-964c0-16.568 13.432-30 30-30h960c16.568 0 30 13.432 30 30v964c0 16.568-13.432 30-30 30zM162-4h-100v100h100zM162 800h-100v100h100zM322-4h-100v100h100zM322 800h-100v100h100zM542 900h100v-100h-100zM382 900h100v-100h-100zM482-4h-100v100h100zM642-4h-100v100h100zM426.884 261.954c-4.612-2.636-9.75-3.954-14.884-3.954-5.202 0-10.402 1.352-15.058 4.052-9.25 5.368-14.942 15.254-14.942 25.948v320c0 10.694 5.692 20.58 14.942 25.948s20.658 5.406 29.942 0.1l280-160c9.348-5.34 15.116-15.282 15.116-26.046s-5.768-20.706-15.116-26.046zM802-4h-100v100h100zM802 800h-100v100h100zM962-4h-100v100h100zM962 800h-100v100h100z" />
<glyph unicode="&#xe92e;" glyph-name="chat-2" d="M634 897.956h-544c-49.802 0-90-40.198-90-90v-360c0-49.798 40.198-90 90-90h30v-90c0-21.674 22.442-37.37 44.4-26.4 0.6 0.6 1.802 0.6 2.402 1.202 165.032 110.67 128.046 85.994 165 110.4 4.798 3 10.198 4.798 16.198 4.798h286c49.802 0 90 40.202 90 90v360c0 49.802-40.198 90-90 90zM394 537.956h-244c-39.546 0-39.708 60 0 60h244c39.546 0 39.708-60 0-60zM574 657.956h-424c-39.546 0-39.708 60 0 60h424c39.546 0 39.708-60 0-60zM934 657.956h-150v-210c0-82.8-67.2-150-150-150h-277l-57-37.8v-52.2c0-49.798 40.198-90 90-90h294.998l172.2-115.198c23.504-13.050 46.802 2.82 46.802 25.198v90h30c49.802 0 90 40.202 90 90v360c0 49.8-40.198 90-90 90z" />
<glyph unicode="&#xe92f;" glyph-name="idea" d="M123.586 324.414c0 9.751-7.904 17.655-17.655 17.655h-88.276c-9.751 0-17.655-7.904-17.655-17.655v-370.759c0-9.751 7.904-17.655 17.655-17.655h88.276c9.751 0 17.655 7.904 17.655 17.655zM981.628 216.364c-8.073 9.9-21.432 13.767-33.545 9.71l-326.621-108.932c-20.286-6.762-21.981-4.59-185.026-4.59-27.891 0.017-55.164-8.214-78.389-23.658l-12.712-8.651c-8.093-5.46-19.080-3.326-24.541 4.767s-3.326 19.080 4.767 24.541l12.888 8.651c29.026 19.325 63.115 29.644 97.986 29.661h101.87c26.854 37.411-11.546 88.276-58.615 88.276h-91.101c-40.173 0.11-79.104 13.938-110.345 39.194-42.955 34.781-82.997 31.426-119.349 31.426v-353.103h429.021c19.42-0.010 38.472 5.302 55.084 15.36l330.858 201.446c7.442 4.466 12.635 11.884 14.285 20.405s-0.398 17.341-5.634 24.263c-0.353 0.353-0.53 0.883-0.883 1.236zM741.517 359.724c0 9.751-7.904 17.655-17.655 17.655h-141.241c-9.751 0-17.655-7.904-17.655-17.655s7.904-17.655 17.655-17.655h141.241c9.751 0 17.655 7.904 17.655 17.655zM781.948 544.574c72.104 55.264 100.923 150.363 71.627 236.356s-110.18 143.718-201.026 143.468c-90.846-0.25-171.411-58.419-200.233-144.572s0.519-181.091 72.926-235.958c42.326-31.146 69.363-78.862 74.328-131.178h107.343c5.403 52.541 32.63 100.395 75.034 131.884zM653.241 500.966c-9.751 0-17.655 7.904-17.655 17.655s7.904 17.655 17.655 17.655 17.655-7.904 17.655-17.655-7.904-17.655-17.655-17.655zM670.897 608.132v-18.891c0-9.751-7.904-17.655-17.655-17.655s-17.655 7.904-17.655 17.655v19.068c0.15 17.5 13.048 32.271 30.367 34.781 46.686 6.739 79.848 48.958 75.335 95.911s-45.108 82.084-92.223 79.808-84.135-41.156-84.1-88.326c0-9.751-7.904-17.655-17.655-17.655s-17.655 7.904-17.655 17.655c0.017 65.956 51.823 120.275 117.704 123.414s122.617-46.009 128.905-111.664c6.288-65.655-40.089-124.678-105.368-134.101zM653.241 253.793c29.216 0.087 52.878 23.75 52.966 52.966h-105.931c0.087-29.216 23.75-52.878 52.966-52.966zM1006.345 730.483h-52.966c-9.751 0-17.655-7.904-17.655-17.655s7.904-17.655 17.655-17.655h52.966c9.751 0 17.655 7.904 17.655 17.655s-7.904 17.655-17.655 17.655zM949.848 952.938c-5.85 7.801-16.917 9.381-24.717 3.531l-42.372-31.779c-6.079-4.56-8.559-12.498-6.156-19.707s9.15-12.072 16.749-12.072c7.786 0 6.744 0.671 52.966 35.31 3.746 2.809 6.222 6.992 6.885 11.627s-0.544 9.344-3.354 13.090zM879.228 525.683c-5.85-7.801-4.27-18.867 3.531-24.717l42.372-31.779c7.801-5.85 18.867-4.27 24.717 3.531s4.27 18.867-3.531 24.717l-42.372 31.779c-3.746 2.809-8.455 4.016-13.090 3.354s-8.818-3.139-11.627-6.885zM300.138 695.172h52.966c9.751 0 17.655 7.904 17.655 17.655s-7.904 17.655-17.655 17.655h-52.966c-9.751 0-17.655-7.904-17.655-17.655s7.904-17.655 17.655-17.655zM423.724 924.69l-42.372 31.779c-7.801 5.85-18.867 4.27-24.717-3.531s-4.27-18.867 3.531-24.717l42.372-31.779c7.801-5.85 18.867-4.27 24.717 3.531s4.27 18.867-3.531 24.717zM370.759 465.655c7.786 0 6.762 0.671 52.966 35.31 7.801 5.85 9.381 16.917 3.531 24.717s-16.917 9.381-24.717 3.531l-42.372-31.779c-6.079-4.56-8.559-12.498-6.156-19.707s9.15-12.072 16.749-12.072z" />
<glyph unicode="&#xe930;" glyph-name="megaphone-1" d="M934.14 534.843l-399.377 399.435c-23.554 23.496-61.656 23.218-84.902 0.030-23.378-23.438-23.378-61.494 0-84.902l399.435-399.407c23.4-23.4 61.442-23.4 84.844 0 23.464 23.464 23.464 61.384 0 84.844zM420.231 794.19l-3.006-15.068c-21.174-105.916-72.634-206.538-142.236-288.093l217.294-217.294c81.544 69.588 180.78 122.43 286.701 143.63l15.096 3.006-373.849 373.819zM235.15 446.021l-148.506-148.476c-35.090-35.090-35.236-92.058 0-127.294l84.844-84.844c35.090-35.090 92.058-35.234 127.294 0l148.492 148.492-212.124 212.122zM256.363 212.671c-11.718-11.718-30.704-11.718-42.422 0s-11.718 30.704 0 42.422l42.422 42.422c11.718 11.718 30.704 11.718 42.422 0s11.718-30.704 0-42.422l-42.422-42.422zM572.533 69.442l40.81 40.81c35.238 35.232 35.122 92.2 0.002 127.262l-30.312 30.334c-16.754-11.254-32.754-23.482-48.31-36.53l36.2-36.254c11.69-11.63 11.772-30.558 0-42.392l-41.484-41.484-60.964 59.066-84.848-84.848 136.114-131.894c23.228-23.288 61.366-23.42 84.814 0.030 23.408 23.408 23.408 61.464 0 84.874l-32.022 31.026zM693.729 960c-16.582 0-30-13.418-30-30v-60c0-16.582 13.418-30 30-30s30 13.418 30 30v60c0 16.582-13.418 30-30 30zM933.73 720h-60c-16.582 0-30-13.418-30-30s13.418-30 30-30h60c16.582 0 30 13.418 30 30s-13.418 30-30 30zM894.94 891.212c-11.718 11.718-30.704 11.718-42.422 0l-60-60c-11.718-11.718-11.718-30.704 0-42.422s30.704-11.72 42.422 0l60 60c11.718 11.718 11.718 30.704 0 42.422z" />
<glyph unicode="&#xe931;" glyph-name="settings" d="M67.228 584.82c5.383-18.455 12.852-36.251 22.3-52.948l-26.913-33.944c-8.788-11.095-7.799-26.913 2.087-36.91l46.357-46.357c9.996-9.996 25.815-10.874 36.91-2.086l33.724 26.694c17.356-9.997 35.811-17.796 55.035-23.288l5.053-43.391c1.648-14.061 13.512-24.606 27.572-24.606h65.581c14.061 0 25.925 10.547 27.572 24.606l4.833 41.853c20.652 5.383 40.425 13.402 58.99 23.837l32.625-25.815c11.095-8.788 26.913-7.799 36.91 2.087l46.357 46.357c9.996 9.996 10.875 25.815 2.087 36.91l-25.375 32.186c10.546 18.236 18.784 37.679 24.277 58.001l39.107 4.504c14.062 1.648 24.606 13.512 24.606 27.572v65.581c0 14.061-10.546 25.925-24.606 27.572l-38.557 4.504c-5.274 20.103-13.182 39.326-23.287 57.342l23.728 29.989c8.788 11.095 7.799 26.913-2.087 36.91l-46.247 46.247c-9.996 9.996-25.815 10.875-36.91 2.087l-29.11-23.069c-18.894 11.095-39.108 19.553-60.308 25.266l-4.394 37.679c-1.648 14.061-13.512 24.606-27.572 24.606h-65.581c-14.061 0-25.925-10.546-27.572-24.606l-4.394-37.679c-21.75-5.822-42.512-14.61-61.846-26.144l-30.209 23.947c-11.095 8.788-26.913 7.799-36.91-2.087l-46.357-46.357c-9.996-9.996-10.875-25.815-2.087-36.91l25.266-31.966c-10.106-18.235-17.796-37.679-22.849-57.891l-40.425-4.614c-14.061-1.648-24.606-13.512-24.606-27.572v-65.581c0-14.061 10.546-25.925 24.606-27.572l42.621-4.944zM304.834 762.228c59.758 0 108.422-48.664 108.422-108.422s-48.664-108.422-108.422-108.422c-59.757 0-108.422 48.664-108.422 108.422s48.664 108.422 108.422 108.422zM953.169 568.672l-34.603 29.22c-10.654 9.008-26.364 8.568-36.469-0.989l-19.114-17.906c-16.147 7.799-33.283 13.292-50.97 16.478l-5.38 26.364c-2.746 13.621-15.379 23.069-29.222 21.97l-45.148-3.845c-13.841-1.208-24.716-12.523-25.156-26.474l-0.878-26.803c-17.357-6.261-33.725-14.83-48.665-25.595l-22.848 15.159c-11.646 7.69-27.134 5.493-36.141-5.163l-29.22-34.822c-9.009-10.655-8.569-26.364 0.986-36.47l19.994-21.31c-6.922-15.599-11.865-31.967-14.72-48.773l-28.561-5.822c-13.621-2.746-23.069-15.379-21.97-29.221l3.845-45.148c1.208-13.841 12.523-24.716 26.474-25.156l30.868-0.988c5.605-14.72 12.963-28.672 21.86-41.743l-17.245-26.034c-7.69-11.644-5.493-27.133 5.162-36.141l34.603-29.22c10.657-9.008 26.364-8.568 36.471 0.989l22.629 21.201c14.83-6.921 30.427-12.084 46.466-15.159l6.263-30.978c2.746-13.621 15.379-23.069 29.22-21.97l45.148 3.845c13.841 1.208 24.716 12.522 25.156 26.474l0.989 30.32c16.478 5.822 32.075 13.731 46.466 23.507l24.937-16.478c11.644-7.69 27.132-5.493 36.141 5.163l29.22 34.603c9.007 10.655 8.567 26.364-0.989 36.47l-20.104 21.31c7.361 15.599 12.745 32.076 15.818 48.994l27.463 5.602c13.621 2.746 23.069 15.379 21.97 29.221l-3.845 45.148c-1.208 13.841-12.523 24.716-26.474 25.156l-27.572 0.879c-5.713 16.038-13.403 31.196-22.959 45.258l15.048 22.629c7.91 11.642 5.713 27.241-4.943 36.248zM783.013 307.669c-48.773-4.175-91.837 32.186-95.9 80.958-4.175 48.773 32.187 91.836 80.958 95.9 48.773 4.174 91.837-32.187 95.9-80.96 4.175-48.775-32.187-91.836-80.958-95.899zM225.193 186.174c-13.841-1.428-24.497-13.071-24.606-27.023l-0.33-27.792c-0.22-13.951 10.106-25.815 23.947-27.573l20.432-2.635c3.405-12.414 8.239-24.278 14.5-35.483l-13.182-16.258c-8.788-10.874-8.129-26.474 1.648-36.47l19.443-19.883c9.777-9.996 25.375-11.095 36.47-2.527l16.367 12.633c11.534-6.811 23.729-12.194 36.47-15.928l2.197-21.091c1.428-13.841 13.072-24.497 27.023-24.606l27.793-0.33c13.95-0.22 25.815 10.106 27.572 23.947l2.527 19.993c13.842 3.406 27.024 8.568 39.546 15.379l15.379-12.413c10.875-8.788 26.475-8.129 36.471 1.648l19.883 19.443c9.996 9.776 11.095 25.375 2.528 36.47l-11.756 15.27c7.25 12.084 12.854 24.936 16.698 38.448l18.235 1.867c13.841 1.428 24.495 13.072 24.606 27.023l0.328 27.793c0.221 13.95-10.105 25.815-23.946 27.572l-17.797 2.307c-3.405 13.402-8.457 26.364-15.048 38.448l11.095 13.621c8.788 10.875 8.129 26.474-1.648 36.47l-19.442 19.883c-9.777 9.997-25.378 11.096-36.471 2.527l-13.293-10.216c-12.522 7.58-25.925 13.402-39.984 17.356l-1.759 17.246c-1.428 13.842-13.071 24.497-27.023 24.606l-27.792 0.33c-13.951 0.22-25.815-10.106-27.573-23.947l-2.197-17.138c-14.499-3.734-28.45-9.447-41.412-16.916l-13.731 11.205c-10.875 8.788-26.475 8.128-36.471-1.648l-19.993-19.554c-9.996-9.776-11.095-25.375-2.527-36.469l11.754-15.16c-6.811-12.084-12.193-24.935-15.709-38.448l-19.223-1.977zM404.578 217.592c39.876-0.439 71.841-33.286 71.403-73.161-0.439-39.876-33.286-71.841-73.161-71.403s-71.841 33.285-71.403 73.161c0.44 39.875 33.286 71.841 73.161 71.403z" />
<glyph unicode="&#xe932;" glyph-name="logout" d="M639.993 405.329c-23.594 0-42.664-19.117-42.664-42.664v-170.67c0-23.508-19.117-42.664-42.671-42.664h-127.999v639.993c0 36.437-23.211 68.991-58.109 81.109l-12.633 4.227h198.74c23.554 0 42.671-19.156 42.671-42.671v-127.999c0-23.547 19.070-42.664 42.664-42.664s42.664 19.117 42.664 42.664v127.999c0 70.57-57.429 127.999-127.999 127.999h-458.659c-1.625 0-2.984-0.727-4.562-0.937-2.055 0.172-4.016 0.937-6.101 0.937-47.062 0-85.335-38.265-85.335-85.327v-767.992c0-36.437 23.211-68.991 58.109-81.109l256.771-85.593c8.703-2.687 17.359-3.969 26.453-3.969 47.062 0 85.327 38.273 85.327 85.335v42.664h127.999c70.57 0 127.999 57.429 127.999 127.999v170.67c0 23.547-19.070 42.664-42.664 42.664zM1011.489 563.491l-170.67 170.662c-12.195 12.203-30.547 15.875-46.5 9.266-15.914-6.617-26.328-22.187-26.328-39.429v-127.999h-170.662c-23.554 0-42.671-19.109-42.671-42.664s19.117-42.664 42.671-42.664h170.662v-127.999c0-17.242 10.414-32.812 26.328-39.429 15.953-6.609 34.304-2.937 46.5 9.258l170.67 170.67c16.68 16.68 16.68 43.648 0 60.327z" />
<glyph unicode="&#xe933;" glyph-name="pencil" d="M632.375 788.009l-563.419-563.46c-2.835-2.843-4.881-6.433-5.856-10.291l-62.45-250.659c-1.868-7.545 0.349-15.57 5.856-21.076 4.167-4.167 9.844-6.473 15.651-6.473 1.779 0 3.598 0.219 5.369 0.666l250.659 62.458c3.907 0.975 7.456 3.013 10.291 5.848l563.468 563.419zM991.527 864.834l-62.718 62.718c-41.917 41.917-114.974 41.877-156.843 0l-76.825-76.825 219.561-219.561 76.825 76.825c20.938 20.93 32.472 48.789 32.472 78.417s-11.533 57.487-32.472 78.426z" />
<glyph unicode="&#xe934;" glyph-name="down-arrow-1" d="M0 704.001l512.002-512.002 511.998 512.002z" />
<glyph unicode="&#xe935;" glyph-name="notification" d="M935.624 96.298l-73.258 122.112c-33.834 56.362-51.712 120.918-51.712 186.624v106.966c0 135.040-90.112 249.258-213.334 286.080v76.586c0 47.062-38.272 85.334-85.334 85.334s-85.334-38.272-85.334-85.334v-76.586c-123.22-36.822-213.332-151.040-213.332-286.080v-106.966c0-65.706-17.878-130.218-51.67-186.582l-73.258-122.112c-3.968-6.614-4.054-14.806-0.256-21.504s10.838-10.838 18.518-10.838h810.666c7.68 0 14.762 4.138 18.56 10.794 3.798 6.658 3.67 14.936-0.256 21.506zM377.63 21.334c24.064-50.262 75.008-85.334 134.356-85.334s110.294 35.072 134.358 85.334h-268.714z" />
<glyph unicode="&#xe936;" d="M512 561.777c-63.073 0-113.777-50.704-113.777-113.777s50.704-113.777 113.777-113.777 113.777 50.704 113.777 113.777-50.704 113.777-113.777 113.777z" />
<glyph unicode="&#xe937;" d="M681.429 655.769c-14.84-14.84-14.84-38.338 0-51.942 42.048-42.048 64.308-96.464 64.308-155.827s-22.261-113.777-64.308-155.827c-14.84-14.84-14.84-38.338 0-51.942 7.421-7.421 17.313-11.13 25.97-11.13s18.551 3.709 25.97 11.13c55.652 55.652 86.569 129.855 86.569 207.767s-30.917 152.115-86.569 207.767c-14.837 14.844-37.098 14.844-51.94 0.005z" />
<glyph unicode="&#xe938;" d="M342.569 603.827c14.84 14.84 14.84 38.338 0 51.942-14.84 14.84-38.338 14.84-51.942 0-115.015-115.015-115.015-301.759 0-415.536 7.421-7.421 17.313-11.13 25.97-11.13 9.895 0 18.551 3.709 25.97 11.13 14.84 14.84 14.84 38.338 0 51.942-85.331 86.569-85.331 225.080 0.002 311.652z" />
<glyph unicode="&#xe939;" d="M887.96 776.967c-14.84 14.84-38.338 14.84-51.942 0-14.84-14.84-14.84-38.338 0-51.942 152.115-153.353 152.115-400.694 0-554.048-14.84-14.84-14.84-38.338 0-51.942 7.421-7.421 17.313-11.13 25.97-11.13s18.551 3.709 25.97 11.13c87.807 87.807 136.038 204.058 136.038 328.965s-48.228 241.16-136.035 328.967z" />
<glyph unicode="&#xe93a;" d="M187.98 776.967c-14.84 14.84-38.338 14.84-51.942 0-87.805-87.807-136.038-204.060-136.038-328.967s48.233-241.16 136.038-328.965c7.421-7.421 17.313-11.13 25.97-11.13s18.551 3.709 25.97 11.13c14.84 14.84 14.84 38.338 0 51.942-152.115 153.353-152.115 400.694 0 554.048 14.844 14.84 14.844 37.1 0.002 51.942z" />
<glyph unicode="&#xe93b;" glyph-name="video-call" d="M796.445 533.333v199.112c0 31.288-25.6 56.888-56.888 56.888h-682.667c-31.291 0-56.891-25.6-56.891-56.888v-568.888c0-31.291 25.6-56.891 56.888-56.891h682.667c31.288 0 56.888 25.6 56.888 56.888v199.112l227.557-227.555v625.776l-227.555-227.555zM625.779 391.112h-170.667v-170.667h-113.779v170.667h-170.667v113.779h170.667v170.667h113.779v-170.667h170.667v-113.779z" />
<glyph unicode="&#xe93c;" glyph-name="delete-2" d="M426.742 898.187h171.141v-28.797h61.805v32.828c0.008 31.859-25.898 57.781-57.742 57.781h-179.266c-31.844 0-57.75-25.922-57.75-57.781v-32.828h61.813zM802.422 624.5h-580.219c-15.898 0-28.414-13.563-27.133-29.414l48.508-599.813c2.703-33.484 30.633-59.273 64.188-59.273h409.086c33.555 0 61.484 25.789 64.188 59.281l48.508 599.805c1.289 15.852-11.227 29.414-27.125 29.414zM362.695-0.023c-0.648-0.039-1.297-0.063-1.938-0.063-16.203 0-29.805 12.617-30.813 29.008l-30.398 492.414c-1.047 17.039 11.914 31.703 28.945 32.75 16.977 1.031 31.703-11.898 32.75-28.945l30.391-492.414c1.055-17.039-11.906-31.695-28.938-32.75zM543.563 30.82c0-17.063-13.836-30.898-30.906-30.898s-30.906 13.836-30.906 30.898v492.422c0 17.070 13.836 30.906 30.906 30.906 17.063 0 30.906-13.836 30.906-30.906zM725.078 521.422l-29.023-492.414c-0.961-16.422-14.586-29.086-30.82-29.086-0.609 0-1.227 0.016-1.844 0.047-17.039 1.008-30.039 15.633-29.031 32.672l29.016 492.422c1 17.039 15.578 30.039 32.664 29.031 17.039-1 30.039-15.633 29.039-32.672zM909.297 719.875l-20.297 60.844c-5.352 16.039-20.367 26.859-37.281 26.859h-678.82c-16.906 0-31.93-10.82-37.273-26.859l-20.297-60.844c-3.914-11.734 1.18-23.703 10.688-29.672 3.875-2.43 8.461-3.891 13.5-3.891h745.594c5.039 0 9.633 1.461 13.5 3.898 9.508 5.969 14.602 17.938 10.688 29.664z" />
<glyph unicode="&#xe93d;" glyph-name="left-arrow-1" d="M413.363 447.784l383.076 383.093c10.548 10.523 16.351 24.593 16.351 39.595 0 15.010-5.803 29.072-16.351 39.611l-33.567 33.551c-10.531 10.556-24.609 16.367-39.611 16.367s-29.063-5.811-39.603-16.367l-456.113-456.105c-10.581-10.573-16.376-24.701-16.334-39.72-0.042-15.085 5.744-29.196 16.334-39.778l455.688-455.663c10.54-10.556 24.601-16.367 39.611-16.367 15.002 0 29.063 5.811 39.611 16.367l33.559 33.551c21.837 21.837 21.837 57.386 0 79.214l-382.651 382.651z" />
<glyph unicode="&#xe93e;" glyph-name="home" d="M1006.802 502.231l-459.435 418.635c-20.166 18.378-50.576 18.376-70.734 0.002l-459.437-418.639c-16.154-14.72-21.49-37.4-13.598-57.778 7.894-20.378 27.114-33.544 48.968-33.544h73.38v-419.441c0-16.63 13.484-30.114 30.114-30.114h251.828c16.63 0 30.114 13.482 30.114 30.114v254.672h148.004v-254.674c0-16.63 13.484-30.114 30.114-30.114h251.816c16.63 0 30.114 13.482 30.114 30.114v419.443h73.394c21.852 0 41.074 13.168 48.968 33.544 7.882 20.38 2.546 43.058-13.608 57.78zM890.182 874.54h-202.238l232.352-211.272v181.16c0 16.63-13.482 30.112-30.114 30.112z" />
<glyph unicode="&#xe93f;" glyph-name="tick" d="M1012.464 808.984c-15.378 15.38-40.316 15.38-55.698 0l-638.421-638.423-251.11 251.112c-15.378 15.382-40.316 15.382-55.698 0-15.38-15.38-15.38-40.316 0-55.698l278.963-278.963c15.374-15.374 40.32-15.378 55.698 0l666.267 666.273c15.38 15.382 15.38 40.318 0 55.698z" />
<glyph unicode="&#xe940;" glyph-name="cancel" d="M568.571 447.997l443.713 443.715c15.622 15.622 15.622 40.95 0 56.57s-40.95 15.622-56.57 0l-443.715-443.715-443.713 443.715c-15.622 15.622-40.95 15.622-56.57 0s-15.622-40.95 0-56.57l443.713-443.713-443.713-443.715c-15.622-15.622-15.622-40.95 0-56.57 7.81-7.81 18.048-11.714 28.286-11.714s20.474 3.904 28.286 11.714l443.711 443.713 443.713-443.713c7.81-7.81 18.048-11.714 28.286-11.714s20.474 3.904 28.286 11.714c15.622 15.622 15.622 40.95 0 56.57l-443.713 443.713z" />
</font>
</defs>
</svg>
